<svg xmlns="http://www.w3.org/2000/svg" xmlns:xlink="http://www.w3.org/1999/xlink" version="1.1" x="0px" y="0px" viewBox="0 0 100 100" enable-background="new 0 0 100 100" xml:space="preserve"><text transform="matrix(1 0 0 1 127.1875 16.9702)"><tspan x="0" y="0" fill="#000000" font-family="'ArialMT'" font-size="21">Created By CBi China Bridge </tspan><tspan x="0" y="25.2" fill="#000000" font-family="'ArialMT'" font-size="21">from the Noun Project</tspan></text><circle fill="#000000" cx="72.489" cy="110.5" r="2.908"/><g><circle fill="#000000" cx="38.188" cy="129.521" r="4.177"/><circle fill="#000000" cx="45.757" cy="137.092" r="4.176"/><circle fill="#000000" cx="12.716" cy="154.516" r="2.908"/><circle fill="#000000" stroke="#221F1F" stroke-width="2" stroke-linecap="round" stroke-linejoin="round" stroke-miterlimit="10" cx="41.584" cy="133.699" r="14.717"/><line fill="#000000" stroke="#221F1F" stroke-width="2" stroke-linecap="round" stroke-linejoin="round" stroke-miterlimit="10" x1="70.993" y1="111.857" x2="57.264" y2="125.576"/><line fill="#000000" stroke="#221F1F" stroke-width="2" stroke-linecap="round" stroke-linejoin="round" stroke-miterlimit="10" x1="25.734" y1="141.492" x2="12.716" y2="154.516"/><path fill="#000000" stroke="#221F1F" stroke-width="2" stroke-linecap="round" stroke-linejoin="round" stroke-miterlimit="10" d="   M30.269,136.955"/><polyline fill="#000000" stroke="#221F1F" stroke-width="2" stroke-linecap="round" stroke-linejoin="round" stroke-miterlimit="10" points="   30.269,136.955 37.944,129.279 45.755,137.088 52.781,130.066  "/><line fill="#000000" stroke="#221F1F" stroke-width="2" stroke-linecap="round" stroke-linejoin="round" stroke-miterlimit="10" x1="52.126" y1="143.967" x2="54.987" y2="146.828"/><line fill="#000000" stroke="#221F1F" stroke-width="4" stroke-linecap="round" stroke-linejoin="round" stroke-miterlimit="10" x1="68.298" y1="160.201" x2="56.097" y2="148"/></g><g><path fill="#000000" d="M79.135,23.375c-1.604,0-2.906,1.303-2.906,2.908c0,0.437,0.104,0.848,0.275,1.219L64.703,39.294   c-0.391,0.391-0.391,1.024,0,1.415c0.195,0.195,0.451,0.293,0.707,0.293s0.512-0.098,0.707-0.293l11.801-11.793   c0.371,0.173,0.781,0.275,1.217,0.275c1.607,0,2.908-1.303,2.908-2.908S80.742,23.375,79.135,23.375z"/><path fill="#000000" d="M33.174,55.209L22.083,66.307c-0.372-0.172-0.783-0.275-1.22-0.275c-1.605,0-2.906,1.303-2.906,2.908   s1.301,2.908,2.906,2.908c1.606,0,2.909-1.303,2.909-2.908c0-0.438-0.104-0.848-0.275-1.219l11.092-11.098   c0.391-0.391,0.391-1.023,0-1.414S33.565,54.818,33.174,55.209z"/><path fill="#000000" d="M61.635,45.199c0.391-0.391,0.391-1.023,0-1.414s-1.023-0.391-1.414-0.001l-4.17,4.167   c-0.629-0.381-1.357-0.611-2.146-0.611s-1.52,0.231-2.148,0.612L49.9,46.098c0.381-0.631,0.612-1.361,0.612-2.151   c0-2.306-1.868-4.177-4.176-4.177c-2.309,0-4.179,1.871-4.179,4.177c0,0.661,0.168,1.279,0.441,1.835l-4.891,4.892   c-0.391,0.391-0.391,1.023,0,1.414s1.023,0.391,1.414,0l4.767-4.768c0.689,0.501,1.53,0.805,2.447,0.805   c0.79,0,1.52-0.231,2.149-0.612l1.854,1.854c-0.381,0.63-0.612,1.36-0.612,2.149c0,2.307,1.87,4.178,4.176,4.178   s4.176-1.871,4.176-4.178c0-0.79-0.232-1.521-0.613-2.151L61.635,45.199z"/><path fill="#000000" d="M65.658,61.01c-0.51-0.51-1.225-0.68-1.879-0.525l-2.135-2.137c2.365-2.751,3.805-6.319,3.805-10.224   c0-8.667-7.053-15.72-15.719-15.72c-8.666,0-15.716,7.053-15.716,15.72s7.05,15.718,15.716,15.718   c4.043,0,7.725-1.549,10.512-4.066l2.09,2.09c-0.197,0.678-0.037,1.439,0.498,1.973l12.201,12.201   c0.391,0.391,0.902,0.586,1.414,0.586s1.023-0.195,1.414-0.586c0.781-0.781,0.781-2.047,0-2.828L65.658,61.01z M36.014,48.124   c0-7.565,6.153-13.72,13.716-13.72c7.565,0,13.719,6.154,13.719,13.72c0,7.563-6.154,13.718-13.719,13.718   C42.167,61.842,36.014,55.688,36.014,48.124z"/></g></svg>