<svg xmlns="http://www.w3.org/2000/svg" xmlns:xlink="http://www.w3.org/1999/xlink" version="1.1" x="0px" y="0px" viewBox="0 0 100 100" enable-background="new 0 0 100 100" xml:space="preserve"><text transform="matrix(1 0 0 1 129.5205 17.3047)" fill="#000000" font-family="'ArialMT'" font-size="21">Created By CBi China Bridge </text><text transform="matrix(1 0 0 1 129.5205 42.5068)" fill="#000000" font-family="'ArialMT'" font-size="21">from the Noun Project</text><text transform="matrix(1 0 0 1 39.6987 183.3574)" fill="#000000" font-family="'ArialMT'" font-size="12">pen</text><g><path fill="#000000" d="M76.497,60.161c-0.553,0-1,0.448-1,1v15.36h-49.57V31.353h43.39c0.553,0,1-0.448,1-1s-0.447-1-1-1h-44.39   c-0.553,0-1,0.448-1,1v47.169c0,0.553,0.447,1,1,1h51.57c0.553,0,1-0.447,1-1v-16.36C77.497,60.609,77.05,60.161,76.497,60.161z"/><path fill="#000000" d="M53.872,37.826c0-0.553-0.447-1-1-1H32.148c-0.553,0-1,0.447-1,1s0.447,1,1,1h20.724   C53.425,38.826,53.872,38.379,53.872,37.826z"/><path fill="#000000" d="M32.148,46.971h9.945c0.553,0,1-0.447,1-1s-0.447-1-1-1h-9.945c-0.553,0-1,0.447-1,1   S31.596,46.971,32.148,46.971z"/><path fill="#000000" d="M51.105,54.115c0-0.553-0.447-1-1-1H32.148c-0.553,0-1,0.447-1,1s0.447,1,1,1h17.957   C50.658,55.115,51.105,54.668,51.105,54.115z"/><path fill="#000000" d="M32.148,63.26h7.361c0.553,0,1-0.447,1-1s-0.447-1-1-1h-7.361c-0.553,0-1,0.447-1,1   S31.596,63.26,32.148,63.26z"/><path fill="#000000" d="M32.148,71.404h11.24c0.553,0,1-0.447,1-1s-0.447-1-1-1h-11.24c-0.553,0-1,0.447-1,1   S31.596,71.404,32.148,71.404z"/><path fill="#000000" d="M91.623,28.268c-1.064-1.064-2.406-1.627-3.881-1.627c-1.88,0-3.787,0.914-5.517,2.645L52.249,59.263   c-0.007,0.007-0.009,0.017-0.016,0.022c-0.054,0.059-0.091,0.128-0.131,0.198c-0.028,0.049-0.062,0.094-0.08,0.146   c-0.005,0.014-0.017,0.023-0.021,0.037l-3.291,10.469c-0.113,0.359-0.014,0.752,0.256,1.016c0.189,0.186,0.441,0.284,0.698,0.284   c0.108,0,0.217-0.018,0.323-0.054l10.26-3.5c0.01-0.003,0.017-0.012,0.027-0.016c0.046-0.018,0.084-0.05,0.128-0.074   c0.075-0.043,0.15-0.082,0.211-0.141c0.004-0.004,0.01-0.005,0.014-0.009l29.978-29.978C94.201,34.069,93.708,30.354,91.623,28.268   z M82.933,31.406l2.776,2.775l2.775,2.775L59.921,65.521L54.37,59.97L82.933,31.406z M53.414,61.842l4.666,4.666l-6.869,2.343   L53.414,61.842z M89.862,35.507l-5.48-5.479c2.072-1.688,4.346-1.824,5.827-0.346C91.715,31.189,91.557,33.408,89.862,35.507z"/></g><polyline fill="none" stroke="#000000" stroke-width="2" stroke-linecap="round" stroke-linejoin="round" stroke-miterlimit="10" points="  69.316,117.002 24.927,117.002 24.927,164.171 76.497,164.171 76.497,147.811 "/><line fill="#000000" stroke="#211F1F" stroke-width="2" stroke-linecap="round" stroke-linejoin="round" stroke-miterlimit="10" x1="32.148" y1="124.476" x2="52.872" y2="124.476"/><line fill="#000000" stroke="#211F1F" stroke-width="2" stroke-linecap="round" stroke-linejoin="round" stroke-miterlimit="10" x1="32.148" y1="132.62" x2="42.094" y2="132.62"/><line fill="#000000" stroke="#211F1F" stroke-width="2" stroke-linecap="round" stroke-linejoin="round" stroke-miterlimit="10" x1="32.148" y1="140.765" x2="50.105" y2="140.765"/><line fill="#000000" stroke="#211F1F" stroke-width="2" stroke-linecap="round" stroke-linejoin="round" stroke-miterlimit="10" x1="32.148" y1="148.909" x2="39.51" y2="148.909"/><line fill="#000000" stroke="#211F1F" stroke-width="2" stroke-linecap="round" stroke-linejoin="round" stroke-miterlimit="10" x1="32.148" y1="157.054" x2="43.389" y2="157.054"/><g><path fill="#000000" stroke="#231F20" stroke-width="2" stroke-linecap="round" stroke-linejoin="round" stroke-miterlimit="10" d="   M90.916,115.624c1.922,1.924,1.919,5.047-1.018,7.983l-6.966-6.966C85.868,113.705,88.992,113.701,90.916,115.624z"/><rect x="66.501" y="113.916" transform="matrix(-0.7071 -0.7071 0.7071 -0.7071 26.3939 281.1583)" fill="#000000" stroke="#231F20" stroke-width="2" stroke-linecap="round" stroke-linejoin="round" stroke-miterlimit="10" width="9.851" height="42.394"/><polyline fill="#000000" stroke="#231F20" stroke-width="2" stroke-linecap="round" stroke-linejoin="round" stroke-miterlimit="10" points="   52.956,146.615 49.665,157.084 59.925,153.584  "/></g><text x="0" y="115" fill="#000000" font-size="5px" font-weight="bold" font-family="'Helvetica Neue', Helvetica, Arial-Unicode, Arial, Sans-serif">Created by CBi icons</text><text x="0" y="120" fill="#000000" font-size="5px" font-weight="bold" font-family="'Helvetica Neue', Helvetica, Arial-Unicode, Arial, Sans-serif">from the Noun Project</text></svg>