<svg xmlns="http://www.w3.org/2000/svg" xmlns:xlink="http://www.w3.org/1999/xlink" version="1.1" x="0px" y="0px" viewBox="0 0 100 100" enable-background="new 0 0 100 100" xml:space="preserve"><text transform="matrix(1 0 0 1 129.5205 17.3042)" fill="#000000" font-family="'ArialMT'" font-size="21">Created By CBi China Bridge </text><text transform="matrix(1 0 0 1 129.5205 42.5044)" fill="#000000" font-family="'ArialMT'" font-size="21">from the Noun Project</text><text transform="matrix(1 0 0 1 34.7705 201.6738)" fill="#000000" font-family="'Roboto-Regular'" font-size="12">Share</text><path fill="#000000" stroke="#231F20" stroke-width="2" stroke-linecap="round" stroke-linejoin="round" stroke-miterlimit="10" d="  M79.625,177.109l-13.411-0.944c-0.65,0.338-1.327,0.658-2.011,0.944c-3.449,1.446-7.34,2.261-11.464,2.261  c-6.237,0-11.947-1.854-16.367-4.947c1.438,0.209,2.903,0.32,4.41,0.32c14.046,0,25.432-9.434,25.432-21.08  c0-6.48-3.527-12.278-9.072-16.142c11.949,1.725,21.028,10.37,21.028,20.768c0,3.433-0.987,6.655-2.738,9.515L79.625,177.109z"/><path fill="#000000" stroke="#231F20" stroke-width="2" stroke-linecap="round" stroke-linejoin="round" stroke-miterlimit="10" d="  M66.214,153.663c0,11.646-11.386,21.08-25.432,21.08c-1.507,0-2.972-0.111-4.41-0.32c-2.495-0.354-4.86-1.021-7.052-1.94  c-0.686-0.286-1.361-0.606-2.011-0.944l-13.413,0.944l4.193-9.306c-1.75-2.858-2.738-6.082-2.738-9.514  c0-11.645,11.386-21.09,25.431-21.09c6.239,0,11.94,1.863,16.359,4.948C62.687,141.385,66.214,147.183,66.214,153.663z"/><circle fill="#000000" cx="34.406" cy="154.528" r="1.966"/><circle fill="#000000" cx="41" cy="154.528" r="1.965"/><circle fill="#000000" cx="47.592" cy="154.528" r="1.965"/><g><path fill="#000000" d="M83.69,68.502l-3.904-8.665c1.734-2.997,2.612-6.217,2.612-9.578c0-10.71-9.095-19.806-21.654-21.714   c-4.706-3.222-10.635-5.001-16.733-5.001c-14.574,0-26.431,9.909-26.431,22.09c0,3.36,0.878,6.579,2.612,9.577l-3.979,8.831   c-0.145,0.321-0.11,0.694,0.091,0.983c0.202,0.287,0.544,0.458,0.891,0.425l13.134-0.924c0.618,0.313,1.234,0.599,1.833,0.849   c2.255,0.946,4.634,1.604,7.069,1.969c4.693,3.22,10.623,4.997,16.736,4.997c4.162,0,8.15-0.787,11.85-2.338   c0.603-0.252,1.218-0.538,1.834-0.85l13.132,0.924c0.023,0.002,0.047,0.003,0.07,0.003c0.007,0,0.013,0,0.021,0   c0.552,0,1-0.447,1-1C83.874,68.864,83.806,68.665,83.69,68.502z M30.999,62.621c-0.143-0.075-0.301-0.113-0.461-0.113   c-0.023,0-0.047,0.001-0.07,0.003l-11.744,0.826l3.506-7.779c0.137-0.302,0.114-0.651-0.059-0.934   c-1.719-2.808-2.591-5.833-2.591-8.991c0-11.077,10.96-20.09,24.431-20.09c5.775,0,11.383,1.693,15.787,4.769   c5.494,3.827,8.645,9.412,8.645,15.321c0,11.072-10.96,20.08-24.432,20.08c-1.416,0-2.852-0.104-4.27-0.311   c-2.349-0.333-4.639-0.964-6.807-1.873C32.304,63.266,31.652,62.96,30.999,62.621z M69.513,67.138   c-0.184-0.016-0.368,0.023-0.531,0.109c-0.65,0.338-1.303,0.645-1.937,0.91c-3.454,1.448-7.181,2.183-11.077,2.183   c-4.265,0-8.43-0.917-12.082-2.627c0.042,0,0.084,0,0.125,0c14.574,0,26.432-9.905,26.432-22.08c0-0.593-0.038-1.181-0.094-1.767   c-0.012-0.121-0.021-0.242-0.036-0.363c-0.064-0.568-0.153-1.131-0.27-1.689c-0.021-0.096-0.045-0.19-0.066-0.286   c-0.117-0.518-0.254-1.032-0.414-1.54c-0.024-0.077-0.045-0.156-0.07-0.233c-0.181-0.546-0.389-1.084-0.618-1.616   c-0.049-0.113-0.1-0.226-0.15-0.338c-0.242-0.535-0.503-1.064-0.794-1.581c-0.019-0.033-0.04-0.065-0.059-0.099   c-0.282-0.495-0.592-0.978-0.918-1.454c-0.065-0.097-0.13-0.194-0.197-0.289c-0.343-0.484-0.708-0.957-1.096-1.418   c-0.072-0.087-0.149-0.171-0.224-0.257c-0.377-0.436-0.771-0.862-1.188-1.276c-0.032-0.032-0.06-0.067-0.093-0.1   c9.613,2.789,16.243,10.291,16.243,18.932c0,3.159-0.872,6.185-2.591,8.992c-0.173,0.282-0.195,0.632-0.059,0.934l3.506,7.779   L69.513,67.138z"/><circle fill="#000000" cx="37.636" cy="46.5" r="1.965"/><circle fill="#000000" cx="44.229" cy="46.5" r="1.965"/><circle fill="#000000" cx="50.822" cy="46.5" r="1.965"/></g></svg>